<svg xmlns="http://www.w3.org/2000/svg" width="28" height="28" viewBox="0 0 24 24" fill="none" stroke="#58a6ff" stroke-width="1.8" stroke-linecap="round" stroke-linejoin="round">
  <g>
    <animateTransform attributeName="transform" type="rotate" values="0 12 12;15 12 12;0 12 12;-15 12 12;0 12 12" dur="3s" repeatCount="indefinite" />
    <path d="M14.7 6.3a1 1 0 0 0 0 1.4l1.6 1.6a1 1 0 0 0 1.4 0l3.77-3.77a6 6 0 0 1-7.94 7.94l-6.91 6.91a2.12 2.12 0 0 1-3-3l6.91-6.91a6 6 0 0 1 7.94-7.94l-3.76 3.76z">
      <animate attributeName="opacity" values="0.4;1;0.4" dur="2.5s" repeatCount="indefinite" />
    </path>
  </g>
  <path d="M14.7 6.3a1 1 0 0 0 0 1.4l1.6 1.6a1 1 0 0 0 1.4 0l3.77-3.77a6 6 0 0 1-7.94 7.94l-6.91 6.91a2.12 2.12 0 0 1-3-3l6.91-6.91a6 6 0 0 1 7.94-7.94l-3.76 3.76z" stroke="#58a6ff" stroke-width="4" opacity="0">
    <animate attributeName="opacity" values="0;0.2;0" dur="2.5s" repeatCount="indefinite" />
  </path>
</svg>
